<svg viewBox="0 0 426 179" fill="none" xmlns="http://www.w3.org/2000/svg">
  <path d="M145.2 119.306a75.747 75.747 0 0 0-12.67-80.37l-17.34 12.7a54.393 54.393 0 0 1 10.45 59.15 54.392 54.392 0 0 1-61.32 31.47l4.21-9.68a10.69 10.69 0 0 0-5.54-14.06 10.688 10.688 0 0 0-14.06 5.54l-17.09 39.23a10.693 10.693 0 0 0 2.106 11.71 10.688 10.688 0 0 0 17.494-3.16l4.21-9.68a75.736 75.736 0 0 0 89.55-42.85Z" fill="#255752"/>
  <path d="M114.11.866a10.68 10.68 0 0 0-14 5.54l-4.21 9.68a75.74 75.74 0 0 0-89.6 42.82 75.72 75.72 0 0 0 12.69 80.36l17.34-12.69a54.372 54.372 0 0 1-10.44-59.15 54.38 54.38 0 0 1 61.32-31.47L83 45.636a10.68 10.68 0 0 0 5.53 14.05 10.67 10.67 0 0 0 14-5.53l17.06-39.23a10.678 10.678 0 0 0-5.48-14.06Z" fill="#67E0A6"/>
  <path d="M311.76 45.296h-29.87a10.7 10.7 0 0 0-10.69 10.69v85.53h21.33v-25.21h19.19c22.17 0 37-15.9 37-35.5s-14.79-35.51-36.96-35.51Zm-1.33 52.63h-17.9v-34.25h17.9a17.13 17.13 0 0 1 17.1 17.13 17.13 17.13 0 0 1-17.1 17.12ZM213.83 141.516v-77.69H188.9v-18.53h71.23v18.53H235.2v77.69h-21.37ZM379.53 141.516v-77.69h-24.94v-18.53h71.23v18.53h-24.93v77.69h-21.36Z" fill="#255752"/>
</svg>
